<svg width="140" height="138" viewBox="0 0 140 138" fill="none" xmlns="http://www.w3.org/2000/svg">
<path d="M136.5 0H97.769C95.836 0 94.269 1.567 94.269 3.5C94.269 5.433 95.836 7 97.769 7H133V41.229C133 43.162 134.567 44.729 136.5 44.729C138.433 44.729 140 43.162 140 41.229V3.5C140 1.567 138.433 0 136.5 0ZM136.5 92.339C134.567 92.339 133 93.906 133 95.839V130.068H97.769C95.836 130.068 94.269 131.635 94.269 133.568C94.269 135.501 95.836 137.068 97.769 137.068H136.5C138.433 137.068 140 135.501 140 133.568V95.839C140 93.906 138.433 92.339 136.5 92.339ZM42.231 130.068H7V95.839C7 93.906 5.433 92.339 3.5 92.339C1.567 92.339 0 93.906 0 95.839V133.568C0 135.501 1.567 137.068 3.5 137.068H42.231C44.164 137.068 45.731 135.501 45.731 133.568C45.731 131.635 44.165 130.068 42.231 130.068ZM3.5 44.729C5.433 44.729 7 43.162 7 41.229V7H42.231C44.164 7 45.731 5.433 45.731 3.5C45.731 1.567 44.164 0 42.231 0H3.5C1.567 0 0 1.567 0 3.5V41.229C0 43.162 1.567 44.729 3.5 44.729Z" fill="black"/>
<path d="M16.499 99.933C14.566 99.933 12.999 101.5 12.999 103.433V120.907C12.999 122.84 14.566 124.407 16.499 124.407H34.437C36.37 124.407 37.937 122.84 37.937 120.907C37.937 118.974 36.37 117.407 34.437 117.407H19.999V103.433C19.999 101.5 18.432 99.933 16.499 99.933ZM37.936 16.162C37.936 14.229 36.369 12.662 34.436 12.662H16.499C14.566 12.662 12.999 14.229 12.999 16.162V33.635C12.999 35.568 14.566 37.135 16.499 37.135C18.432 37.135 19.999 35.568 19.999 33.635V19.662H34.437C36.369 19.662 37.936 18.095 37.936 16.162ZM127.002 16.162C127.002 14.229 125.435 12.662 123.502 12.662H105.564C103.631 12.662 102.064 14.229 102.064 16.162C102.064 18.095 103.631 19.662 105.564 19.662H120.002V33.635C120.002 35.568 121.569 37.135 123.502 37.135C125.435 37.135 127.002 35.568 127.002 33.635V16.162ZM123.502 99.933C121.569 99.933 120.002 101.5 120.002 103.433V117.407H105.564C103.631 117.407 102.064 118.974 102.064 120.907C102.064 122.84 103.631 124.407 105.564 124.407H123.502C125.435 124.407 127.002 122.84 127.002 120.907V103.433C127.002 101.5 125.435 99.933 123.502 99.933ZM62.725 68.612C62.725 67.508 61.829 66.612 60.725 66.612H54.796C53.692 66.612 52.796 67.508 52.796 68.612C52.796 69.716 53.692 70.612 54.796 70.612H60.725C61.83 70.612 62.725 69.716 62.725 68.612ZM79.274 70.612H85.203C86.307 70.612 87.203 69.716 87.203 68.612C87.203 67.508 86.307 66.612 85.203 66.612H79.274C78.17 66.612 77.274 67.508 77.274 68.612C77.274 69.716 78.17 70.612 79.274 70.612Z" fill="black"/>
<path d="M104.314 110.22C108.35 110.22 111.634 106.936 111.634 102.9V66.192C111.634 54.939 107.215 44.396 99.1912 36.505C91.1702 28.616 80.5632 24.375 69.2892 24.563C46.7242 24.94 28.3652 43.896 28.3652 66.82V102.899C28.3652 106.935 31.6492 110.219 35.6852 110.219H55.9942C57.2392 111.13 58.5792 112.018 60.0312 112.889C62.8162 114.559 66.0062 115.442 69.2542 115.442H70.7482C73.9972 115.442 77.1862 114.559 79.9722 112.889C81.4242 112.018 82.7642 111.13 84.0082 110.219H104.314V110.22ZM35.3652 102.899V66.82C35.3652 47.692 50.6362 31.876 69.4072 31.562C78.7952 31.403 87.6122 34.934 94.2832 41.496C100.959 48.06 104.635 56.831 104.635 66.192V102.899C104.635 103.076 104.491 103.219 104.315 103.219H91.2602C93.0592 100.829 94.4312 98.238 95.4312 95.359C98.5202 94.45 100.904 91.832 101.446 88.576L102.498 82.267C103.035 79.047 101.913 75.815 99.4972 73.62L98.9982 73.167V66.921C100.685 66.671 101.984 65.23 101.984 63.473C101.984 61.54 100.417 59.973 98.4842 59.973C91.4242 59.973 81.5822 53.392 77.9062 48.862C77.0742 47.837 75.7382 47.364 74.4462 47.647C73.1562 47.927 72.1332 48.909 71.8002 50.188C71.4042 51.709 70.9132 54.098 70.8132 56.834C70.7952 57.323 70.4512 57.546 70.3042 57.62C69.9212 57.81 69.6752 57.639 69.5942 57.582C64.8312 54.255 62.6992 48.006 61.5102 43.595C61.0802 42.002 59.6142 40.912 57.9482 41.011C56.3012 41.096 54.9362 42.322 54.6752 43.95C53.1292 53.568 50.3212 59.974 41.6412 59.974C39.7082 59.974 38.1412 61.541 38.1412 63.474C38.1412 65.189 39.3772 66.61 41.0052 66.91V73.166L40.5042 73.622C38.0882 75.816 36.9672 79.049 37.5042 82.268L38.5552 88.578C39.0972 91.832 41.4802 94.45 44.5712 95.36C45.5712 98.24 46.9432 100.831 48.7422 103.221H35.6852C35.5082 103.22 35.3652 103.076 35.3652 102.899ZM70.7472 108.442H69.2532C67.2732 108.442 65.3282 107.904 63.6292 106.884C56.7332 102.75 52.9742 98.505 51.0572 92.692L50.6502 91.457C50.1642 89.981 48.8522 88.919 47.2912 88.747L46.8062 88.695C46.1262 88.623 45.5722 88.1 45.4602 87.425L44.4082 81.114C44.2642 80.253 44.5652 79.387 45.2112 78.801L46.8582 77.305C47.5882 76.642 48.0052 75.701 48.0052 74.714V66.026C53.6122 64.2 56.8392 59.983 58.7602 55.635C60.4052 58.504 62.5992 61.232 65.5862 63.318C67.9262 64.953 70.8562 65.163 73.4272 63.883C75.6642 62.768 77.2212 60.681 77.6772 58.272C81.6612 61.432 86.8282 64.438 91.9982 65.951V74.715C91.9982 75.701 92.4142 76.642 93.1442 77.306L94.7902 78.801C95.4362 79.388 95.7372 80.253 95.5942 81.115L94.5422 87.425C94.4302 88.1 93.8762 88.622 93.2012 88.695L92.6942 88.748C91.1492 88.918 89.8372 89.981 89.3502 91.459L88.9442 92.691C87.0272 98.504 83.2672 102.75 76.3722 106.885C74.6732 107.904 72.7282 108.442 70.7472 108.442Z" fill="black"/>
<path d="M66.2439 90.214C67.3699 91.03 68.6689 91.462 69.9999 91.462C71.3309 91.462 72.6309 91.03 73.7559 90.214C74.6509 89.566 74.8499 88.315 74.2009 87.421C73.5529 86.526 72.3029 86.328 71.4079 86.976C70.5169 87.622 69.4819 87.621 68.5919 86.976C67.6989 86.329 66.4479 86.527 65.7989 87.421C65.1499 88.315 65.3499 89.565 66.2439 90.214ZM60.7249 78.726C60.7249 76.543 59.3979 74.774 57.7609 74.774C56.1239 74.774 54.7969 76.543 54.7969 78.726C54.7969 80.908 56.1239 82.678 57.7609 82.678C59.3979 82.678 60.7249 80.908 60.7249 78.726ZM85.2029 78.726C85.2029 76.543 83.8759 74.774 82.2389 74.774C80.6019 74.774 79.2749 76.543 79.2749 78.726C79.2749 80.908 80.6019 82.678 82.2389 82.678C83.8759 82.678 85.2029 80.908 85.2029 78.726ZM76.7059 94.626C74.9339 96.107 72.5489 96.923 69.9919 96.923C67.4409 96.923 65.0609 96.111 63.2909 94.637C62.2299 93.754 60.6529 93.899 59.7699 94.959C58.8869 96.021 59.0309 97.597 60.0919 98.48C62.7589 100.7 66.2749 101.922 69.9919 101.922C73.7199 101.922 77.2419 100.693 79.9129 98.461C80.9729 97.576 81.1129 95.999 80.2269 94.94C79.3409 93.881 77.7649 93.74 76.7059 94.626Z" fill="black"/>
</svg>
