<svg width="48" height="48" viewBox="0 0 48 48" fill="none" xmlns="http://www.w3.org/2000/svg">
<path d="M26.8999 20.2L27.0999 22.2C28.2999 22.2 29.3999 22.6 30.2999 23.3C30.4999 23.5 30.6999 23.6 30.8999 23.8C31.3999 24.3 31.8999 25 32.0999 25.7L33.9999 25C33.5999 24.1 33.0999 23.2 32.2999 22.5C31.9999 22.2 31.6999 22 31.4999 21.8C30.1999 20.9 28.7999 20.3 27.2999 20.3C27.0999 20.2 26.9999 20.2 26.8999 20.2Z" fill="black"/>
<path d="M41.9 37.6L42.8 36.7L39.2 33.1L37.5 34.8V32.6C38.7 30.4 39 27.8 38.6 25.3C38.4 24.2 38 23.1 37.5 22.2V13.9L36.9 13.3L28 4.40001L24.3 0.700012H5.1C2.5 0.700012 0.5 2.80001 0.5 5.30001V43C0.5 45.6 2.6 47.6 5.1 47.6H32.9C35.4 47.6 37.5 45.5 37.5 43V42L37.6 41.9L42.5 46.8C43 47.3 43.7 47.6 44.3 47.6C45 47.6 45.6 47.3 46.1 46.8L46.7 46.2C47.7 45.2 47.7 43.6 46.7 42.6L41.9 37.6ZM27.7 18C28.2 18 28.6 18.1 29.1 18.2C29.8 18.3 30.4 18.5 31.1 18.8C31.8 19.1 32.5 19.5 33 19.9C33.3 20.1 33.6 20.4 34 20.8C34.4 21.2 34.8 21.7 35.1 22.2C35.3 22.4 35.4 22.7 35.6 23C36.1 23.8 36.4 24.8 36.6 25.8C37 27.9 36.6 30.1 35.6 32C35.2 32.8 34.6 33.5 34 34.2C33.1 35.1 32.1 35.7 31.1 36.2C29.1 37.1 26.9 37.2 24.8 36.6C23.3 36.2 21.9 35.3 20.7 34.2C20.5 34 20.3 33.7 20.1 33.5C19.8 33.2 19.6 32.9 19.4 32.5C19 31.8 18.6 31.1 18.4 30.3C17.4 27 18.2 23.3 20.7 20.8C20.8 20.7 20.8 20.7 20.9 20.6C21.1 20.4 21.2 20.3 21.4 20.2C23 18.8 25 18 27.1 18C27.2 18 27.3 18 27.4 18C27.5 18 27.6 17.9 27.7 18ZM24.8 3.90001L26.9 6.00001L34.1 13.2H27.4C26 13.2 24.8 12 24.8 10.6V3.90001ZM39.9 36.7L36.7 40L36 39.2L39.2 36L39.9 36.7ZM32.9 45.5H5.1C3.6 45.5 2.5 44.3 2.5 42.9V5.10001C2.5 3.60001 3.7 2.50001 5.1 2.50001H22.8V10.6C22.8 13.2 24.9 15.2 27.4 15.2H35.5V19.3C35.5 19.3 35.5 19.2 35.4 19.2C35 18.8 34.6 18.4 34.2 18.1C33.5 17.6 32.7 17.1 31.9 16.7C31.1 16.4 30.3 16.1 29.5 16C28.9 16 28.3 16 27.9 16C27.8 16 27.6 15.9 27.5 16C24.5 16 21.6 17.1 19.5 19.2L19.4 19.3C19.2 19.5 19.1 19.6 19 19.8H6.7V21.8H17.4C16.6 23.2 16.2 24.7 16 26.2H6.7V28.2H16C16.1 29 16.2 29.8 16.4 30.5C16.6 31.2 16.9 31.9 17.2 32.6H6.7V34.6H18.5C18.7 34.9 19 35.1 19.2 35.4C20.6 36.8 22.3 37.8 24.2 38.3C24.7 38.4 25.1 38.5 25.6 38.6C25.7 38.6 25.7 38.6 25.8 38.6C26.3 38.7 26.7 38.7 27.2 38.7C27.2 38.7 27.2 38.7 27.3 38.7C27.4 38.7 27.4 38.7 27.5 38.7C27.8 38.7 28.1 38.7 28.3 38.7C28.4 38.7 28.5 38.7 28.6 38.7C28.9 38.7 29.1 38.6 29.4 38.6C29.5 38.6 29.6 38.6 29.7 38.5C30 38.4 30.3 38.4 30.5 38.3C30.6 38.3 30.6 38.3 30.7 38.2C31.1 38.1 31.4 38 31.7 37.8C32.7 37.4 33.7 36.8 34.5 36L35.2 36.7L32.9 39L35.3 41.4V42.7C35.5 44.3 34.4 45.5 32.9 45.5ZM45.3 44.7L44.7 45.3C44.5 45.5 44.1 45.5 43.9 45.3L39 40.5L40.4 39.1L45.3 44C45.6 44.1 45.6 44.5 45.3 44.7Z" fill="black"/>
<path d="M19.0002 6.90002H6.7002V8.90002H19.0002V6.90002Z" fill="black"/>
<path d="M19.0002 13.3H6.7002V15.3H19.0002V13.3Z" fill="black"/>
<path d="M31.2002 39.1H6.7002V41.1H31.2002V39.1Z" fill="black"/>
</svg>
