<svg xmlns="http://www.w3.org/2000/svg" width="24" height="24" fill="none" viewBox="0 0 24 24"><path stroke="#2C2C2C" stroke-linecap="round" stroke-linejoin="round" stroke-width="1.5" d="M14 1H6C5.46957 1 4.96086 1.21071 4.58579 1.58579C4.21071 1.96086 4 2.46957 4 3V21C4 21.5304 4.21071 22.0391 4.58579 22.4142C4.96086 22.7893 5.46957 23 6 23H18C18.5304 23 19.0391 22.7893 19.4142 22.4142C19.7893 22.0391 20 21.5304 20 21V7"/><path stroke="#2C2C2C" stroke-linecap="round" stroke-linejoin="round" stroke-width="1.5" d="M14 1V5C14 5.53043 14.2107 6.03914 14.5858 6.41421C14.9609 6.78929 15.4696 7 16 7H20L14 1Z"/><path stroke="#2C2C2C" stroke-linecap="round" stroke-linejoin="round" stroke-width="1.5" d="M10 7H8"/><path stroke="#2C2C2C" stroke-linecap="round" stroke-linejoin="round" stroke-width="1.5" d="M16 11H8"/><path stroke="#2C2C2C" stroke-linecap="round" stroke-linejoin="round" stroke-width="1.5" d="M16 15H8"/><path stroke="#2C2C2C" stroke-linecap="round" stroke-linejoin="round" stroke-width="1.5" d="M16 19H14"/></svg>