<svg width="163" height="163" viewBox="0 0 163 163" fill="none" xmlns="http://www.w3.org/2000/svg">
<path d="M6.26923 50.1538C7.93193 50.1538 9.52654 49.4933 10.7022 48.3176C11.878 47.1419 12.5385 45.5473 12.5385 43.8846V12.5385H43.8846C45.5473 12.5385 47.1419 11.878 48.3176 10.7022C49.4933 9.52654 50.1538 7.93193 50.1538 6.26923C50.1538 4.60653 49.4933 3.01192 48.3176 1.83621C47.1419 0.660506 45.5473 0 43.8846 0H12.5385C9.21305 0 6.02385 1.32101 3.67243 3.67243C1.32101 6.02385 0 9.21305 0 12.5385V43.8846C0 45.5473 0.660506 47.1419 1.83621 48.3176C3.01192 49.4933 4.60653 50.1538 6.26923 50.1538ZM150.462 0H119.115C117.453 0 115.858 0.660506 114.682 1.83621C113.507 3.01192 112.846 4.60653 112.846 6.26923C112.846 7.93193 113.507 9.52654 114.682 10.7022C115.858 11.878 117.453 12.5385 119.115 12.5385H150.462V43.8846C150.462 45.5473 151.122 47.1419 152.298 48.3176C153.473 49.4933 155.068 50.1538 156.731 50.1538C158.393 50.1538 159.988 49.4933 161.164 48.3176C162.339 47.1419 163 45.5473 163 43.8846V12.5385C163 9.21305 161.679 6.02385 159.328 3.67243C156.976 1.32101 153.787 0 150.462 0ZM156.731 112.846C155.068 112.846 153.473 113.507 152.298 114.682C151.122 115.858 150.462 117.453 150.462 119.115V150.462H119.115C117.453 150.462 115.858 151.122 114.682 152.298C113.507 153.473 112.846 155.068 112.846 156.731C112.846 158.393 113.507 159.988 114.682 161.164C115.858 162.339 117.453 163 119.115 163H150.462C153.787 163 156.976 161.679 159.328 159.328C161.679 156.976 163 153.787 163 150.462V119.115C163 117.453 162.339 115.858 161.164 114.682C159.988 113.507 158.393 112.846 156.731 112.846ZM43.8846 150.462H12.5385V119.115C12.5385 117.453 11.878 115.858 10.7022 114.682C9.52654 113.507 7.93193 112.846 6.26923 112.846C4.60653 112.846 3.01192 113.507 1.83621 114.682C0.660506 115.858 0 117.453 0 119.115V150.462C0 153.787 1.32101 156.976 3.67243 159.328C6.02385 161.679 9.21305 163 12.5385 163H43.8846C45.5473 163 47.1419 162.339 48.3176 161.164C49.4933 159.988 50.1538 158.393 50.1538 156.731C50.1538 155.068 49.4933 153.473 48.3176 152.298C47.1419 151.122 45.5473 150.462 43.8846 150.462ZM43.8846 25.0769C42.2219 25.0769 40.6273 25.7374 39.4516 26.9131C38.2759 28.0888 37.6154 29.6835 37.6154 31.3462V43.8846C37.6154 45.5473 38.2759 47.1419 39.4516 48.3176C40.6273 49.4933 42.2219 50.1538 43.8846 50.1538C45.5473 50.1538 47.1419 49.4933 48.3176 48.3176C49.4933 47.1419 50.1538 45.5473 50.1538 43.8846V31.3462C50.1538 29.6835 49.4933 28.0888 48.3176 26.9131C47.1419 25.7374 45.5473 25.0769 43.8846 25.0769ZM119.115 50.1538C120.778 50.1538 122.373 49.4933 123.548 48.3176C124.724 47.1419 125.385 45.5473 125.385 43.8846V31.3462C125.385 29.6835 124.724 28.0888 123.548 26.9131C122.373 25.7374 120.778 25.0769 119.115 25.0769C117.453 25.0769 115.858 25.7374 114.682 26.9131C113.507 28.0888 112.846 29.6835 112.846 31.3462V43.8846C112.846 45.5473 113.507 47.1419 114.682 48.3176C115.858 49.4933 117.453 50.1538 119.115 50.1538ZM68.9615 100.308H75.2308C78.5562 100.308 81.7454 98.9867 84.0968 96.6353C86.4482 94.2838 87.7692 91.0946 87.7692 87.7692V31.3462C87.7692 29.6835 87.1087 28.0888 85.933 26.9131C84.7573 25.7374 83.1627 25.0769 81.5 25.0769C79.8373 25.0769 78.2427 25.7374 77.067 26.9131C75.8913 28.0888 75.2308 29.6835 75.2308 31.3462V87.7692H68.9615C67.2988 87.7692 65.7042 88.4297 64.5285 89.6054C63.3528 90.7812 62.6923 92.3758 62.6923 94.0385C62.6923 95.7012 63.3528 97.2958 64.5285 98.4715C65.7042 99.6472 67.2988 100.308 68.9615 100.308Z" fill="black"/>
<path d="M131.654 106.577C131.654 104.914 130.993 103.32 129.818 102.144C128.642 100.968 127.047 100.308 125.385 100.308C123.722 100.308 122.127 100.968 120.952 102.144C119.776 103.32 119.115 104.914 119.115 106.577C119.115 115.479 103.693 125.385 81.5 125.385C59.307 125.385 43.8847 115.479 43.8847 106.577C43.8847 104.914 43.2241 103.32 42.0484 102.144C40.8727 100.968 39.2781 100.308 37.6154 100.308C35.9527 100.308 34.3581 100.968 33.1824 102.144C32.0067 103.32 31.3462 104.914 31.3462 106.577C31.3462 124.131 53.3512 137.923 81.5 137.923C109.649 137.923 131.654 124.131 131.654 106.577Z" fill="black"/>
</svg>
