<svg xmlns="http://www.w3.org/2000/svg" width="32" height="22" fill="none" viewBox="0 0 32 22"><path fill="#000" d="M29 0H3C1.3 0 0 1.3 0 3V19C0 20.7 1.3 22 3 22H29C30.7 22 32 20.7 32 19V3C32 1.3 30.7 0 29 0ZM30 19C30 19.6 29.6 20 29 20H3C2.4 20 2 19.6 2 19V3C2 2.4 2.4 2 3 2H29C29.6 2 30 2.4 30 3V19Z"/><path fill="#000" d="M13.8 9.3C13.9 8.9 14 8.4 14 8C14 5.8 12.2 4 10 4C7.8 4 6 5.8 6 8C6 8.5 6.1 8.9 6.2 9.3C4.9 9.9 4 11.2 4 12.8V17C4 17.6 4.4 18 5 18H15C15.6 18 16 17.6 16 17V12.8C16 11.2 15.1 9.9 13.8 9.3ZM10 6C11.1 6 12 6.9 12 8C12 9.1 11.1 10 10 10C8.9 10 8 9.1 8 8C8 6.9 8.9 6 10 6ZM14 16H6V12.8C6 11.9 6.6 11.2 7.4 11.1C8.1 11.7 9 12.1 10 12.1C11 12.1 11.9 11.7 12.6 11.1C13.4 11.3 14 12 14 12.8V16ZM27 6H19C18.4 6 18 6.4 18 7C18 7.6 18.4 8 19 8H27C27.6 8 28 7.6 28 7C28 6.4 27.6 6 27 6ZM27 10H19C18.4 10 18 10.4 18 11C18 11.6 18.4 12 19 12H27C27.6 12 28 11.6 28 11C28 10.4 27.6 10 27 10ZM27 14H19C18.4 14 18 14.4 18 15C18 15.6 18.4 16 19 16H27C27.6 16 28 15.6 28 15C28 14.4 27.6 14 27 14Z"/></svg>