<svg xmlns="http://www.w3.org/2000/svg" width="47" height="64" fill="none" viewBox="0 0 47 64"><path fill="#000" d="M40.9999 8.26002V6.44002C40.9973 4.73284 40.3179 3.09633 39.1108 1.88917C37.9036 0.68201 36.2671 0.00266313 34.5599 1.83838e-05C33.3899 -0.0699816 2.28992 8.13002 2.18992 8.18002C1.96301 8.27783 1.75618 8.41684 1.57992 8.59002C0.739924 9.44002 0.999924 5.36002 0.999924 62C0.999924 62.5305 1.21064 63.0392 1.58571 63.4142C1.96078 63.7893 2.46949 64 2.99992 64H38.9999C41.1217 64 43.1565 63.1572 44.6568 61.6569C46.1571 60.1566 46.9999 58.1218 46.9999 56V16C46.9986 14.2275 46.4086 12.5056 45.3227 11.1046C44.2367 9.70373 42.7162 8.70315 40.9999 8.26002ZM34.5599 4.00002C35.2071 4.00002 35.8277 4.25709 36.2853 4.71468C36.7429 5.17227 36.9999 5.79289 36.9999 6.44002V8.00002H18.7399C35.1099 3.76002 34.1999 4.00002 34.5599 4.00002ZM42.9999 56C42.9999 57.0609 42.5785 58.0783 41.8284 58.8284C41.0782 59.5786 40.0608 60 38.9999 60H4.99992V12H38.9999C40.0608 12 41.0782 12.4214 41.8284 13.1716C42.5785 13.9217 42.9999 14.9392 42.9999 16V56Z"/><path fill="#000" d="M24.08 16C21.3077 15.9841 18.5931 16.7917 16.2803 18.3204C13.9676 19.8491 12.1607 22.03 11.0888 24.5868C10.0169 27.1435 9.7282 29.9609 10.2593 32.6819C10.7905 35.4029 12.1175 37.9049 14.0722 39.8708C16.0269 41.8368 18.5213 43.1781 21.2392 43.7248C23.9571 44.2715 26.7761 43.999 29.3389 42.9418C31.9018 41.8845 34.093 40.0902 35.6349 37.7862C37.1768 35.4822 38 32.7723 38 30C38.0001 26.3008 36.5361 22.7519 33.9278 20.1287C31.3196 17.5054 27.7792 16.0211 24.08 16ZM33.8 28H30.87C30.6272 25.6519 29.949 23.3696 28.87 21.27C30.1278 21.9707 31.2195 22.9348 32.0703 24.0963C32.9212 25.2579 33.5112 26.5894 33.8 28ZM21.16 28C21.4905 25.4617 22.4685 23.0511 24 21C25.5315 23.0511 26.5095 25.4617 26.84 28H21.16ZM26.84 32C26.5095 34.5383 25.5315 36.9489 24 39C22.4685 36.9489 21.4905 34.5383 21.16 32H26.84ZM19.13 21.27C18.0511 23.3696 17.3728 25.6519 17.13 28H14.2C14.4888 26.5894 15.0788 25.2579 15.9297 24.0963C16.7805 22.9348 17.8722 21.9707 19.13 21.27ZM14.2 32H17.13C17.3728 34.3481 18.0511 36.6304 19.13 38.73C17.8722 38.0293 16.7805 37.0652 15.9297 35.9036C15.0788 34.7421 14.4888 33.4106 14.2 32ZM28.87 38.73C29.949 36.6304 30.6272 34.3481 30.87 32H33.8C33.5112 33.4106 32.9212 34.7421 32.0703 35.9036C31.2195 37.0652 30.1278 38.0293 28.87 38.73ZM34 50H14C13.4696 50 12.9609 50.2107 12.5858 50.5858C12.2107 50.9608 12 51.4696 12 52C12 52.5304 12.2107 53.0391 12.5858 53.4142C12.9609 53.7893 13.4696 54 14 54H34C34.5304 54 35.0391 53.7893 35.4142 53.4142C35.7893 53.0391 36 52.5304 36 52C36 51.4696 35.7893 50.9608 35.4142 50.5858C35.0391 50.2107 34.5304 50 34 50Z"/></svg>