<svg width="115" height="113" viewBox="0 0 115 113" fill="none" xmlns="http://www.w3.org/2000/svg">
<path d="M3.49902 87.933C1.56602 87.933 -0.000976562 89.5 -0.000976562 91.433V108.907C-0.000976562 110.84 1.56602 112.407 3.49902 112.407H21.437C23.37 112.407 24.937 110.84 24.937 108.907C24.937 106.974 23.37 105.407 21.437 105.407H6.99902V91.433C6.99902 89.5 5.43202 87.933 3.49902 87.933ZM24.936 4.16199C24.936 2.22899 23.369 0.661987 21.436 0.661987H3.49902C1.56602 0.661987 -0.000976562 2.22899 -0.000976562 4.16199V21.635C-0.000976562 23.568 1.56602 25.135 3.49902 25.135C5.43202 25.135 6.99902 23.568 6.99902 21.635V7.66199H21.437C23.369 7.66199 24.936 6.09499 24.936 4.16199ZM114.002 4.16199C114.002 2.22899 112.435 0.661987 110.502 0.661987H92.564C90.631 0.661987 89.064 2.22899 89.064 4.16199C89.064 6.09499 90.631 7.66199 92.564 7.66199H107.002V21.635C107.002 23.568 108.569 25.135 110.502 25.135C112.435 25.135 114.002 23.568 114.002 21.635V4.16199ZM49.725 56.612C49.725 55.508 48.829 54.612 47.725 54.612H41.796C40.692 54.612 39.796 55.508 39.796 56.612C39.796 57.716 40.692 58.612 41.796 58.612H47.725C48.83 58.612 49.725 57.716 49.725 56.612ZM66.274 58.612H72.203C73.307 58.612 74.203 57.716 74.203 56.612C74.203 55.508 73.307 54.612 72.203 54.612H66.274C65.17 54.612 64.274 55.508 64.274 56.612C64.274 57.716 65.17 58.612 66.274 58.612Z" fill="black"/>
<path d="M74.1348 97.879C74.1348 97.879 79.7185 76.8017 79.633 76.862L98.6348 73.937L99.269 55.629C99.269 44.376 94.85 33.833 86.826 25.942C78.805 18.053 68.198 13.812 56.924 14C34.359 14.377 16 33.333 16 56.257V92.336C16 96.372 19.284 99.656 23.32 99.656H43.629C44.874 100.567 46.214 101.455 47.666 102.326C50.451 103.996 53.641 104.879 56.889 104.879H58.383C61.632 104.879 64.821 103.996 67.607 102.326C69.059 101.455 72.8908 98.79 74.1348 97.879ZM23 92.336V56.257C23 37.129 38.271 21.313 57.042 20.999C66.43 20.84 75.247 24.371 81.918 30.933C88.594 37.497 92.27 46.268 92.27 55.629L91.1348 73.937C91.8006 69.937 89.548 65.252 87.132 63.057L86.633 62.604V56.358C88.32 56.108 89.619 54.667 89.619 52.91C89.619 50.977 88.052 49.41 86.119 49.41C79.059 49.41 69.217 42.829 65.541 38.299C64.709 37.274 63.373 36.801 62.081 37.084C60.791 37.364 59.768 38.346 59.435 39.625C59.039 41.146 58.548 43.535 58.448 46.271C58.43 46.76 58.086 46.983 57.939 47.057C57.556 47.247 57.31 47.076 57.229 47.019C52.466 43.692 50.334 37.443 49.145 33.032C48.715 31.439 47.249 30.349 45.583 30.448C43.936 30.533 42.571 31.759 42.31 33.387C40.764 43.005 37.956 49.411 29.276 49.411C27.343 49.411 25.776 50.978 25.776 52.911C25.776 54.626 27.012 56.047 28.64 56.347V62.603L28.139 63.059C25.723 65.253 24.602 68.486 25.139 71.705L26.19 78.015C26.732 81.269 29.115 83.887 32.206 84.797C33.206 87.677 34.578 90.268 36.377 92.658H23.32C23.143 92.657 23 92.513 23 92.336ZM58.382 97.879H56.888C54.908 97.879 52.963 97.341 51.264 96.321C44.368 92.187 40.609 87.942 38.692 82.129L38.285 80.894C37.799 79.418 36.487 78.356 34.926 78.184L34.441 78.132C33.761 78.06 33.207 77.537 33.095 76.862L32.043 70.551C31.899 69.69 32.2 68.824 32.846 68.238L34.493 66.742C35.223 66.079 35.64 65.138 35.64 64.151V55.463C41.247 53.637 44.474 49.42 46.395 45.072C48.04 47.941 50.234 50.669 53.221 52.755C55.561 54.39 58.491 54.6 61.062 53.32C63.299 52.205 64.856 50.118 65.312 47.709C69.296 50.869 74.463 53.875 79.633 55.388V64.152C79.633 65.138 80.049 66.079 80.779 66.743L82.425 68.238C83.071 68.825 91.2778 73.075 91.1348 73.937L79.633 76.862C79.633 76.862 70.902 92.187 64.007 96.322C62.308 97.341 60.363 97.879 58.382 97.879Z" fill="black"/>
<path d="M53.2439 78.214C54.3699 79.03 55.6689 79.462 56.9999 79.462C58.3309 79.462 59.6309 79.03 60.7559 78.214C61.6509 77.566 61.8499 76.315 61.2009 75.421C60.5529 74.526 59.3029 74.328 58.4079 74.976C57.5169 75.622 56.4819 75.621 55.5919 74.976C54.6989 74.329 53.4479 74.527 52.7989 75.421C52.1499 76.315 52.3499 77.565 53.2439 78.214ZM47.7249 66.726C47.7249 64.543 46.3979 62.774 44.7609 62.774C43.1239 62.774 41.7969 64.543 41.7969 66.726C41.7969 68.908 43.1239 70.678 44.7609 70.678C46.3979 70.678 47.7249 68.908 47.7249 66.726ZM72.2029 66.726C72.2029 64.543 70.8759 62.774 69.2389 62.774C67.6019 62.774 66.2749 64.543 66.2749 66.726C66.2749 68.908 67.6019 70.678 69.2389 70.678C70.8759 70.678 72.2029 68.908 72.2029 66.726ZM63.7059 82.626C61.9339 84.107 59.5489 84.923 56.9919 84.923C54.4409 84.923 52.0609 84.111 50.2909 82.637C49.2299 81.754 47.6529 81.899 46.7699 82.959C45.8869 84.021 46.0309 85.597 47.0919 86.48C49.7589 88.7 53.2749 89.922 56.9919 89.922C60.7199 89.922 64.2419 88.693 66.9129 86.461C67.9729 85.576 68.1129 83.999 67.2269 82.94C66.3409 81.881 64.7649 81.74 63.7059 82.626Z" fill="black"/>
<path d="M83.0625 81.6979C83.0625 82.0764 83.2198 82.4394 83.4999 82.707C83.78 82.9746 84.1599 83.125 84.5559 83.125C84.952 83.125 85.3319 82.9746 85.612 82.707C85.892 82.4394 86.0494 82.0764 86.0494 81.6979C86.0494 81.3195 85.892 80.9565 85.612 80.6889C85.3319 80.4212 84.952 80.2709 84.5559 80.2709C84.1599 80.2709 83.78 80.4212 83.4999 80.6889C83.2198 80.9565 83.0625 81.3195 83.0625 81.6979ZM91.5 67C79.0744 67 69 76.6266 69 88.5C69 100.373 79.0744 110 91.5 110C103.926 110 114 100.373 114 88.5C114 76.6266 103.926 67 91.5 67ZM80.25 81.6979C80.25 80.6067 80.7037 79.5601 81.5112 78.7885C82.3187 78.0169 83.4139 77.5834 84.5559 77.5834C85.6979 77.5834 86.7932 78.0169 87.6007 78.7885C88.4082 79.5601 88.8619 80.6067 88.8619 81.6979C88.8619 82.7892 88.4082 83.8357 87.6007 84.6074C86.7932 85.379 85.6979 85.8125 84.5559 85.8125C83.4139 85.8125 82.3187 85.379 81.5112 84.6074C80.7037 83.8357 80.25 82.7892 80.25 81.6979ZM84.0581 97.5139C83.7936 97.7653 83.4356 97.9064 83.0625 97.9064C82.6894 97.9064 82.3314 97.7653 82.0669 97.5139C81.8032 97.2619 81.6551 96.9202 81.6551 96.5638C81.6551 96.2075 81.8032 95.8658 82.0669 95.6138L98.9419 79.4888C99.2071 79.244 99.5623 79.1086 99.931 79.1117C100.3 79.1147 100.652 79.256 100.913 79.5052C101.174 79.7543 101.322 80.0914 101.325 80.4437C101.328 80.796 101.186 81.1354 100.93 81.3889L84.0581 97.5139ZM98.4441 99.25C97.3021 99.25 96.2068 98.8165 95.3993 98.0449C94.5918 97.2732 94.1381 96.2267 94.1381 95.1354C94.1381 94.0442 94.5918 92.9976 95.3993 92.226C96.2068 91.4544 97.3021 91.0209 98.4441 91.0209C99.5861 91.0209 100.681 91.4544 101.489 92.226C102.296 92.9976 102.75 94.0442 102.75 95.1354C102.75 96.2267 102.296 97.2732 101.489 98.0449C100.681 98.8165 99.5861 99.25 98.4441 99.25ZM96.9506 95.1354C96.9506 95.3228 96.9893 95.5084 97.0643 95.6816C97.1394 95.8547 97.2494 96.012 97.388 96.1445C97.5267 96.277 97.6914 96.3822 97.8725 96.4539C98.0537 96.5256 98.2479 96.5625 98.4441 96.5625C98.6402 96.5625 98.8344 96.5256 99.0156 96.4539C99.1968 96.3822 99.3614 96.277 99.5001 96.1445C99.6388 96.012 99.7488 95.8547 99.8238 95.6816C99.8989 95.5084 99.9375 95.3228 99.9375 95.1354C99.9375 94.948 99.8989 94.7625 99.8238 94.5893C99.7488 94.4162 99.6388 94.2589 99.5001 94.1264C99.3614 93.9938 99.1968 93.8887 99.0156 93.817C98.8344 93.7453 98.6402 93.7084 98.4441 93.7084C98.2479 93.7084 98.0537 93.7453 97.8725 93.817C97.6914 93.8887 97.5267 93.9938 97.388 94.1264C97.2494 94.2589 97.1394 94.4162 97.0643 94.5893C96.9893 94.7625 96.9506 94.948 96.9506 95.1354Z" fill="black"/>
</svg>
