<svg width="34" height="48" viewBox="0 0 34 48" fill="none" xmlns="http://www.w3.org/2000/svg">
<path d="M1 7C0.448 7 0 6.552 0 6V3C0 1.346 1.346 0 3 0H6C6.552 0 7 0.448 7 1C7 1.552 6.552 2 6 2H3C2.449 2 2 2.449 2 3V6C2 6.552 1.552 7 1 7ZM6 17H3C1.346 17 0 15.654 0 14V11C0 10.448 0.448 10 1 10C1.552 10 2 10.448 2 11V14C2 14.551 2.449 15 3 15H6C6.552 15 7 15.448 7 16C7 16.552 6.552 17 6 17ZM33 7C32.448 7 32 6.552 32 6V3C32 2.449 31.551 2 31 2H28C27.448 2 27 1.552 27 1C27 0.448 27.448 0 28 0H31C32.654 0 34 1.346 34 3V6C34 6.552 33.552 7 33 7ZM31 17H28C27.448 17 27 16.552 27 16C27 15.448 27.448 15 28 15H31C31.551 15 32 14.551 32 14V11C32 10.448 32.448 10 33 10C33.552 10 34 10.448 34 11V14C34 15.654 32.654 17 31 17ZM17 21C12.589 21 9 17.411 9 13V8C9 7.213 9.112 6.443 9.333 5.711C9.46 5.289 9.849 5 10.29 5H12C13.341 5 14.595 4.48 15.53 3.536C15.974 3.1 16.335 2.573 16.583 2.001C16.74 1.652 16.847 1.297 16.914 0.901C17.003 0.375 17.489 0.011 18.019 0.076C19.783 0.288 21.386 1.071 22.657 2.342C23.606 3.291 24.302 4.459 24.67 5.719C24.888 6.443 25 7.213 25 8V13C25 17.411 21.411 21 17 21ZM11.082 7C11.027 7.326 11 7.661 11 8V13C11 16.309 13.691 19 17 19C20.309 19 23 16.309 23 13V8C23 7.409 22.917 6.833 22.752 6.289C22.475 5.342 21.954 4.469 21.242 3.757C20.503 3.018 19.615 2.5 18.638 2.231C18.572 2.429 18.496 2.622 18.41 2.812C18.066 3.603 17.556 4.348 16.94 4.954C15.637 6.27 13.878 7 12 7H11.082Z" fill="black"/>
<path d="M18.0881 0.088C17.7801 0.029 17.4541 0 17.0001 0C13.4301 0 10.3491 2.296 9.33207 5.715C9.24207 6.018 9.30007 6.345 9.48907 6.598C9.67707 6.851 9.97407 7 10.2901 7H12.0001C13.8781 7 15.6371 6.27 16.9411 4.954C17.5571 4.349 18.0671 3.603 18.4111 2.812C18.6341 2.319 18.7891 1.804 18.8861 1.238C18.9771 0.701 18.6231 0.19 18.0881 0.088Z" fill="black"/>
<path d="M24.67 5.72003C24.302 4.46003 23.606 3.29203 22.657 2.34303C21.386 1.07203 19.782 0.289026 18.019 0.0770258C17.489 0.0120258 17.003 0.376026 16.914 0.902026C16.847 1.29803 16.74 1.65303 16.589 1.98803C16.473 2.24503 16.47 2.54003 16.583 2.79903C16.933 3.60403 17.443 4.34903 18.049 4.94503C19.363 6.27003 21.122 7.00003 23 7.00003H23.71C24.025 7.00003 24.321 6.85203 24.51 6.60003C24.699 6.34803 24.758 6.02203 24.67 5.72003ZM15 10C14.74 10 14.48 9.89003 14.29 9.71003C14.11 9.52003 14 9.26003 14 9.00003C14 8.87003 14.03 8.74003 14.08 8.62003C14.13 8.50003 14.2 8.39003 14.29 8.29003C14.39 8.20003 14.5 8.13003 14.62 8.08003C14.99 7.92003 15.43 8.01003 15.71 8.29003C15.89 8.48003 16 8.74003 16 9.00003C16 9.26003 15.89 9.52003 15.71 9.71003C15.66 9.75003 15.61 9.79003 15.56 9.83003C15.5 9.87003 15.44 9.90003 15.38 9.92003C15.32 9.95003 15.26 9.97003 15.2 9.98003C15.13 9.99003 15.06 10 15 10ZM19 10C18.74 10 18.48 9.89003 18.29 9.71003C18.11 9.52003 18 9.26003 18 9.00003C18 8.74003 18.11 8.48003 18.29 8.29003C18.67 7.92003 19.33 7.92003 19.71 8.29003C19.89 8.48003 20 8.74003 20 9.00003C20 9.26003 19.89 9.52003 19.71 9.71003C19.52 9.89003 19.26 10 19 10ZM17 13.999C16.448 13.999 16 13.551 16 12.999V12C16 11.448 16.448 11 17 11C17.552 11 18 11.448 18 12V12.999C18 13.551 17.552 13.999 17 13.999Z" fill="black"/>
<path d="M18 17H16C14.346 17 13 15.654 13 14C13 13.448 13.448 13 14 13C14.552 13 15 13.448 15 14C15 14.551 15.449 15 16 15H18C18.551 15 19 14.551 19 14C19 13.448 19.448 13 20 13C20.552 13 21 13.448 21 14C21 15.654 19.654 17 18 17ZM8 19H6C4.346 19 3 20.346 3 22V37C3 37.552 3.448 38 4 38H8C8.552 38 9 37.552 9 37V20C9 19.448 8.552 19 8 19ZM28 19H26C25.448 19 25 19.448 25 20V37C25 37.552 25.448 38 26 38H30C30.552 38 31 37.552 31 37V22C31 20.346 29.654 19 28 19Z" fill="black"/>
<path d="M26 19H20C20.552 19 21 19.448 21 20V24C21 26.206 19.206 28 17 28C14.794 28 13 26.206 13 24V20C13 19.448 13.448 19 14 19H8C7.448 19 7 19.448 7 20V47C7 47.552 7.448 48 8 48H26C26.552 48 27 47.552 27 47V20C27 19.448 26.552 19 26 19ZM17.71 43.71C17.52 43.89 17.26 44 17 44C16.74 44 16.48 43.89 16.29 43.71C16.11 43.52 16 43.26 16 43C16 42.74 16.11 42.48 16.29 42.29C16.66 41.92 17.33 41.92 17.71 42.29C17.89 42.48 18 42.74 18 43C18 43.26 17.89 43.52 17.71 43.71ZM17.71 39.71C17.52 39.89 17.26 40 17 40C16.74 40 16.48 39.89 16.29 39.71C16.11 39.52 16 39.26 16 39C16 38.74 16.11 38.48 16.29 38.29C16.66 37.92 17.34 37.92 17.71 38.29C17.89 38.48 18 38.74 18 39C18 39.26 17.89 39.52 17.71 39.71ZM17.71 35.71C17.52 35.89 17.26 36 17 36C16.74 36 16.48 35.89 16.29 35.71C16.11 35.52 16 35.26 16 35C16 34.74 16.11 34.48 16.29 34.29C16.66 33.92 17.34 33.92 17.71 34.29C17.89 34.48 18 34.74 18 35C18 35.26 17.89 35.52 17.71 35.71ZM17.71 31.71C17.52 31.89 17.26 32 17 32C16.74 32 16.48 31.89 16.29 31.71C16.11 31.52 16 31.26 16 31C16 30.87 16.03 30.74 16.08 30.62C16.13 30.5 16.2 30.39 16.29 30.29C16.39 30.2 16.49 30.13 16.62 30.08C16.99 29.93 17.43 30.01 17.71 30.29C17.8 30.39 17.87 30.5 17.92 30.62C17.97 30.74 18 30.87 18 31C18 31.26 17.89 31.52 17.71 31.71Z" fill="black"/>
</svg>
