<svg xmlns="http://www.w3.org/2000/svg" width="163" height="163" fill="none" viewBox="0 0 163 163"><path fill="#000" d="M6.26923 50.1538C7.93193 50.1538 9.52654 49.4933 10.7022 48.3176C11.878 47.1419 12.5385 45.5473 12.5385 43.8846V12.5385H43.8846C45.5473 12.5385 47.1419 11.878 48.3176 10.7022C49.4933 9.52654 50.1538 7.93193 50.1538 6.26923C50.1538 4.60653 49.4933 3.01192 48.3176 1.83621C47.1419 0.660506 45.5473 0 43.8846 0H12.5385C9.21305 0 6.02385 1.32101 3.67243 3.67243C1.32101 6.02385 0 9.21305 0 12.5385V43.8846C0 45.5473 0.660506 47.1419 1.83621 48.3176C3.01192 49.4933 4.60653 50.1538 6.26923 50.1538ZM150.462 0H119.115C117.453 0 115.858 0.660506 114.682 1.83621C113.507 3.01192 112.846 4.60653 112.846 6.26923C112.846 7.93193 113.507 9.52654 114.682 10.7022C115.858 11.878 117.453 12.5385 119.115 12.5385H150.462V43.8846C150.462 45.5473 151.122 47.1419 152.298 48.3176C153.473 49.4933 155.068 50.1538 156.731 50.1538C158.393 50.1538 159.988 49.4933 161.164 48.3176C162.339 47.1419 163 45.5473 163 43.8846V12.5385C163 9.21305 161.679 6.02385 159.328 3.67243C156.976 1.32101 153.787 0 150.462 0ZM156.731 112.846C155.068 112.846 153.473 113.507 152.298 114.682C151.122 115.858 150.462 117.453 150.462 119.115V150.462H119.115C117.453 150.462 115.858 151.122 114.682 152.298C113.507 153.473 112.846 155.068 112.846 156.731C112.846 158.393 113.507 159.988 114.682 161.164C115.858 162.339 117.453 163 119.115 163H150.462C153.787 163 156.976 161.679 159.328 159.328C161.679 156.976 163 153.787 163 150.462V119.115C163 117.453 162.339 115.858 161.164 114.682C159.988 113.507 158.393 112.846 156.731 112.846ZM43.8846 150.462H12.5385V119.115C12.5385 117.453 11.878 115.858 10.7022 114.682C9.52654 113.507 7.93193 112.846 6.26923 112.846C4.60653 112.846 3.01192 113.507 1.83621 114.682C0.660506 115.858 0 117.453 0 119.115V150.462C0 153.787 1.32101 156.976 3.67243 159.328C6.02385 161.679 9.21305 163 12.5385 163H43.8846C45.5473 163 47.1419 162.339 48.3176 161.164C49.4933 159.988 50.1538 158.393 50.1538 156.731C50.1538 155.068 49.4933 153.473 48.3176 152.298C47.1419 151.122 45.5473 150.462 43.8846 150.462Z"/><path stroke="#000" stroke-linecap="round" stroke-linejoin="round" stroke-width="10" d="M36 37H127.999"/><path stroke="#000" stroke-linecap="round" stroke-linejoin="round" stroke-width="10" d="M36 55H118.069"/><path stroke="#000" stroke-linecap="round" stroke-linejoin="round" stroke-width="10" d="M36 73H127.996"/><path stroke="#000" stroke-linecap="round" stroke-linejoin="round" stroke-width="10" d="M36 108H127.996"/><path stroke="#000" stroke-linecap="round" stroke-linejoin="round" stroke-width="10" d="M36 91H102.905"/><path stroke="#000" stroke-linecap="round" stroke-linejoin="round" stroke-width="10" d="M36 126H110.744"/></svg>